<?xml version="1.0" encoding="UTF-8"?>
<svg width="210mm" height="297mm" version="1.1" viewBox="0 0 210 297" xmlns="http://www.w3.org/2000/svg" xmlns:cc="http://creativecommons.org/ns#" xmlns:dc="http://purl.org/dc/elements/1.1/" xmlns:rdf="http://www.w3.org/1999/02/22-rdf-syntax-ns#">
 <metadata>
  <rdf:RDF>
   <cc:Work rdf:about="">
    <dc:format>image/svg+xml</dc:format>
    <dc:type rdf:resource="http://purl.org/dc/dcmitype/StillImage"/>
    <dc:title/>
   </cc:Work>
  </rdf:RDF>
 </metadata>
 <g>
  <path d="m113.58 4.5357c0 12.208-9.897 22.105-22.105 22.105-12.208 0-22.105-9.897-22.105-22.105 0-12.208 9.897-22.105 22.105-22.105 12.208 0 22.105 9.897 22.105 22.105" fill="#ef2c39"/>
  <path d="m110.61 4.5357c0 10.57-8.5686 19.138-19.138 19.138-10.57 0-19.138-8.5686-19.138-19.138 0-10.57 8.5686-19.138 19.138-19.138 10.57 0 19.138 8.5686 19.138 19.138" fill="#fff"/>
  <path d="m106.14 4.5357c0 8.1012-6.5677 14.669-14.669 14.669-8.1012 0-14.669-6.5677-14.669-14.669 0-8.1012 6.5677-14.669 14.669-14.669 8.1012 0 14.669 6.5677 14.669 14.669" fill="#ef2c39"/>
  <path d="m101.67 4.5357c0 5.6328-4.5664 10.2-10.199 10.2-5.6328 0-10.199-4.5667-10.199-10.2 0-5.6328 4.5664-10.2 10.199-10.2 5.6328 0 10.199 4.5667 10.199 10.2" fill="#1a67b9"/>
  <path d="m91.47-5.6638 2.2899 7.0478h7.4101l-5.9948 4.3557 2.2899 7.0474-5.9951-4.3557-5.9951 4.3557 2.2899-7.0474-5.9948-4.3557h7.4101l2.2899-7.0478" fill="#fff"/>
 </g>
</svg>
